<svg xmlns="http://www.w3.org/2000/svg" xmlns:xlink="http://www.w3.org/1999/xlink" width="56" height="45" viewBox="0 0 56 45">
    <defs>
        <path id="bosj1smtoa" d="M0 0.021L55.99 0.021 55.99 44.423 0 44.423z"/>
    </defs>
    <g fill="none" fill-rule="evenodd">
        <g>
            <g>
                <path fill="#6E6D6D" d="M18.654 15.606c1.05-.837 1.846-1.998 2.24-3.267L21 12h-2.472l-.03.237c-.058.44-.132.857-.224 1.275-.182.816-.439 1.602-.765 2.339L17 17l1.006-.86c.201-.173.409-.343.616-.508l.032-.026z" transform="translate(-1411 -1918) translate(1411 1918)"/>
                <g transform="translate(-1411 -1918) translate(1411 1918)">
                    <mask id="1qdhnw0gbb" fill="#fff">
                        <use xlink:href="#bosj1smtoa"/>
                    </mask>
                    <path fill="#6E6D6D" d="M10.198 14.626c-.438 1.203-.974 2.096-1.639 2.73-.678.647-1.524 1.018-2.322 1.018-.09 0-.18-.005-.267-.014-.616-.069-1.253-.381-1.795-.88-.487-.448-.914-1.046-1.305-1.827-.977-1.953-1.38-4.332-1.165-6.881.131-1.554.457-2.854.997-3.976.104-.218.217-.431.337-.635.418-.714.884-1.284 1.386-1.695.565-.463 1.189-.712 1.854-.741l.022-.001h.021c1.036.04 1.831.64 2.315 1.137.59.604 1.077 1.425 1.49 2.511 1.117 2.932 1.143 6.305.07 9.254zm5.332-4.467l.005.037v.037c-.006.249-.014.464-.025.657-.043.743-.125 1.416-.25 2.059-.111.574-.38 1.7-.93 2.777-.73 1.426-1.692 2.28-2.862 2.536-.113.025-.235.045-.384.065l-1.173.156.676-.976c.45-.649.83-1.406 1.16-2.313 1.206-3.318 1.178-7.114-.08-10.414-.334-.878-.712-1.61-1.157-2.238l-.67-.95 1.151.124c.338.037.628.104.885.206.645.256 1.238.743 1.762 1.447.343.462.647.983.904 1.549.65 1.434.995 3.136.997 4.92v.066l-.005.034c-.007.047-.01.086-.01.12 0 .03.002.063.006.101zm33.741 7.417c.186-.251.357-.513.507-.778 1.794-3.166 2.169-7.297 1.003-11.05-.387-1.245-.896-2.314-1.513-3.179l-.7-.982 1.192.156c.52.068 1.035.263 1.491.563 1.19.78 1.872 2.027 2.234 2.936 1.125 2.819 1.13 6.506.013 9.393-.365.943-.776 1.7-1.258 2.313-.725.924-1.6 1.431-2.53 1.465l-1.087.04.648-.877zm-3.069-6.69c.455 0 .825-.371.825-.828 0-.457-.37-.828-.825-.828h-5.839l.054-.574c.194-2.059.836-3.862 1.86-5.216.767-1.017 1.691-1.592 2.746-1.708l.055-.006.055.006c1.806.185 3.215 1.745 4.074 4.51 1.032 3.322.71 6.962-.862 9.736-.628 1.107-1.884 2.401-3.357 2.401-.384 0-.763-.09-1.126-.268-1.762-.86-2.638-3.016-3.062-4.672-.163-.639-.284-1.302-.357-1.97l-.064-.582h5.823zm8.813-6.261c-.646-1.62-1.635-2.901-2.861-3.706-.758-.498-1.619-.792-2.49-.85-.019-.002-.037-.002-.054-.002h-4.538l-.047.001-.056.006c-1.553.132-2.938.95-4.006 2.364-1.117 1.478-1.852 3.396-2.126 5.547-.032.247-.058.503-.077.76l-.037.485h-2.015V7.669c0-1.394-1.118-2.528-2.492-2.528h-9.363c-1.846 0-3.349 1.51-3.349 3.365v.724h-4.321l-.035-.487c-.118-1.618-.5-3.178-1.106-4.513-.305-.673-.67-1.297-1.084-1.853-.71-.954-1.543-1.626-2.477-1.996-.93-.37-1.845-.364-2.729-.358l-.3.001H7.805c-.27 0-.532.011-.788.022-.242.01-.471.02-.7.02l-.05.001C5.215.1 4.245.475 3.383 1.181c-.655.536-1.25 1.256-1.767 2.14-.142.243-.277.497-.4.754C.588 5.382.21 6.873.062 8.632c-.24 2.854.22 5.54 1.334 7.765.483.965 1.028 1.719 1.665 2.305.799.735 1.767 1.198 2.726 1.305.15.016.302.025.453.025H8.76c.185 0 .373.003.562.006h.017c.2.004.407.007.62.007.517 0 1.196-.018 1.86-.164 1.403-.307 2.63-1.227 3.55-2.659.88-1.373 1.308-2.909 1.511-3.956.117-.602.199-1.222.25-1.895l.038-.484h4.353l-.073.59c-.233 1.862-1.141 3.64-2.493 4.878l-.03.027c-5.943 5.381-7.907 13.988-4.888 21.418l.025.057.029.054.013.023.024.037.02.028.037.045.013.014c.008.01.022.023.033.034l.014.014.088-.092-.085.095.04.035.027.02.047.032.02.012c.018.011.034.02.047.026l.03.016.057.023 5.922 2.172.04.022c4.292 2.485 9.258 3.85 14.36 3.95.2.004.404.006.606.006 4.829 0 9.6-1.132 13.8-3.275.405-.207.567-.707.362-1.114-.1-.197-.27-.344-.48-.412-.209-.07-.432-.052-.629.048-3.99 2.036-8.5 3.113-13.042 3.113-5.056 0-9.98-1.314-14.24-3.8l-.048-.026-.03-.015-.032-.015-.1.253.085-.258-5.657-2.076-.083-.228c-1.202-3.272-1.394-6.803-.556-10.211.837-3.408 2.646-6.448 5.23-8.789l.027-.025c1.914-1.744 3.103-4.434 3.103-7.018V8.506c0-.926.779-1.708 1.7-1.708h9.363c.465 0 .843.39.843.87v4.287c0 .238-.129.456-.335.57l-.1.055-.123.008-.02.001-.014.002c-.683.075-1.268.52-1.527 1.159-.083.207-.28.372-.49.413l-.048.008c-.51.064-.977.342-1.278.76l-.02.028-.008.021-.046.058c-.118.15-.333.25-.535.25h-2.713l-.11-.377c-.078-.272-.285-.482-.552-.564-.21-.064-.434-.042-.628.063-.194.104-.336.278-.4.49-.108.36-.188.732-.236 1.108l-.005.034-.002.023c-.095.786-.055 1.574.117 2.34l.01.048c.605 2.79.334 5.97-.803 9.454l-.053.162-.138.1c-.328.237-.646.494-.943.764-.164.149-.26.352-.271.573-.011.221.064.433.211.597.159.177.376.274.613.274.204 0 .4-.076.552-.213 3.401-3.086 8.626-3.195 12.153-.253.35.291.87.243 1.16-.109.141-.17.207-.385.187-.606-.02-.22-.125-.42-.294-.56-.39-.325-.808-.627-1.243-.896l-1.202-.745 1.395-.22c3.894-.613 7.802.027 11.3 1.853.12.062.247.094.379.094.31 0 .59-.172.733-.447.101-.196.12-.42.054-.632-.067-.211-.21-.383-.406-.485-5.023-2.622-10.944-2.979-16.245-.98l-.124.046-.13-.018c-.57-.079-1.149-.113-1.722-.101-1.039.021-2.068.192-3.062.506l-.866.275.2-.89c.637-2.836.697-5.491.177-7.894l-.012-.054c-.038-.166-.068-.339-.09-.513l-.072-.59h3.081c.731 0 1.45-.36 1.874-.942l.125-.17.206-.036c.716-.126 1.361-.617 1.685-1.281l.119-.245.267-.043c1.11-.179 1.917-1.135 1.917-2.273v-1.068h2.028l.042.477c.076.847.22 1.684.425 2.488.733 2.861 2.094 4.85 3.938 5.75.523.255 1.072.4 1.634.43l.05.003.048.013c.071.018.137.026.202.026h4.534c1.47 0 2.864-.746 3.926-2.1.584-.745 1.075-1.64 1.5-2.738 1.28-3.308 1.273-7.374-.02-10.611z" mask="url(#1qdhnw0gbb)"/>
                </g>
            </g>
        </g>
    </g>
</svg>
