<svg xmlns="http://www.w3.org/2000/svg" xmlns:xlink="http://www.w3.org/1999/xlink" width="72" height="46" viewBox="0 0 72 46">
    <defs>
        <path id="fx3ckqyk0a" d="M0 0.055L71.987 0.055 71.987 36.949 0 36.949z"/>
        <path id="ridja2tp1c" d="M0 0.087L71.987 0.087 71.987 6 0 6z"/>
    </defs>
    <g fill="none" fill-rule="evenodd">
        <g>
            <g>
                <g transform="translate(-641 -1917) translate(641 1917)">
                    <mask id="nxkqyhs7ab" fill="#fff">
                        <use xlink:href="#fx3ckqyk0a"/>
                    </mask>
                    <path fill="#6D6C6C" d="M22.86 23.796h21.93v8.75c-.37-.479-.681-1.012-.915-1.595-.163-.407-.593-.626-1.025-.545-.327.063-.585.301-.692.603-1.028 2.5-3.441 4.113-6.158 4.113-2.741 0-5.167-1.637-6.182-4.17-.162-.408-.593-.628-1.025-.546-.327.063-.585.301-.692.603-.91 2.214-2.908 3.73-5.24 4.048v-11.26zm0-1.826h21.93v-4.992H22.86v4.992zM7.888 36.949c2.869 0 5.472-1.41 7.028-3.705 1.554 2.295 4.156 3.705 7.028 3.705 2.87 0 5.473-1.41 7.028-3.705C30.526 35.54 33.128 36.95 36 36.95c2.869 0 5.472-1.41 7.028-3.705 1.555 2.295 4.156 3.705 7.028 3.705 2.87 0 5.473-1.41 7.029-3.705 1.554 2.295 4.156 3.705 7.028 3.705 3.482 0 6.573-2.077 7.874-5.29l-1.702-.683c-1.02 2.518-3.443 4.146-6.172 4.146-2.74 0-5.167-1.637-6.181-4.17-.163-.408-.594-.627-1.025-.546-.327.063-.586.301-.692.603-1.028 2.5-3.442 4.113-6.159 4.113-1.243 0-2.42-.34-3.431-.945V6.402c0-2.493 2.038-4.52 4.543-4.52 2.505 0 4.542 2.027 4.542 4.52v6.499h1.836V6.402c0-3.5-2.861-6.347-6.378-6.347-3.518 0-6.379 2.847-6.379 6.347v8.75H22.861v-8.75c0-2.493 2.038-4.52 4.543-4.52 2.505 0 4.543 2.027 4.543 4.52v6.499h1.835V6.402c0-3.5-2.861-6.347-6.378-6.347s-6.378 2.847-6.378 6.347v28.655c-2.355-.32-4.365-1.86-5.264-4.106-.163-.407-.593-.627-1.026-.545-.327.063-.585.301-.691.603-1.028 2.5-3.442 4.113-6.158 4.113-2.741 0-5.168-1.637-6.182-4.17L0 31.626c1.294 3.232 4.39 5.322 7.887 5.322z" mask="url(#nxkqyhs7ab)"/>
                </g>
                <g transform="translate(-641 -1917) translate(641 1917) translate(0 40)">
                    <mask id="zafpy5aeqd" fill="#fff">
                        <use xlink:href="#ridja2tp1c"/>
                    </mask>
                    <path fill="#6D6C6C" d="M64.113 4.354c-2.74 0-5.167-1.476-6.181-3.76-.163-.367-.596-.564-1.026-.491-.326.056-.585.271-.692.543-1.027 2.254-3.44 3.708-6.158 3.708-2.74 0-5.166-1.476-6.18-3.76C43.711.227 43.28.03 42.85.103c-.327.056-.585.271-.692.543C41.13 2.9 38.717 4.354 36 4.354c-2.741 0-5.167-1.476-6.181-3.76-.163-.367-.594-.566-1.026-.491-.327.056-.585.271-.692.543-1.028 2.254-3.441 3.708-6.158 3.708-2.74 0-5.167-1.476-6.181-3.76-.163-.367-.593-.566-1.026-.491-.326.056-.585.271-.691.543-1.028 2.254-3.442 3.708-6.158 3.708-2.741 0-5.168-1.476-6.182-3.76L0 1.203C1.294 4.117 4.39 6 7.887 6c2.869 0 5.472-1.27 7.028-3.34C16.469 4.73 19.07 6 21.943 6c2.87 0 5.473-1.27 7.028-3.34C30.526 4.73 33.128 6 36 6c2.869 0 5.472-1.27 7.028-3.34C44.583 4.73 47.184 6 50.056 6c2.87 0 5.473-1.27 7.029-3.34C58.639 4.73 61.24 6 64.113 6c3.482 0 6.572-1.872 7.874-4.768L70.285.616c-1.02 2.27-3.443 3.738-6.172 3.738" mask="url(#zafpy5aeqd)"/>
                </g>
            </g>
        </g>
    </g>
</svg>
