<svg xmlns="http://www.w3.org/2000/svg" xmlns:xlink="http://www.w3.org/1999/xlink" width="47" height="49" viewBox="0 0 47 49">
    <defs>
        <path id="eq64ag4cua" d="M0.053 0.033L16.934 0.033 16.934 36 0.053 36z"/>
    </defs>
    <g fill="none" fill-rule="evenodd">
        <g>
            <g>
                <g>
                    <path fill="#6D6C6C" d="M44.828 18.586c-1.415-2.309-3.44-4.168-5.857-5.377l-.352-.176.05-.395c.06-.468.09-.937.09-1.394C38.759 5.044 33.8 0 27.707 0c-2.653 0-5.12.92-7.133 2.66l-.289.25-.332-.186c-1.62-.912-3.46-1.394-5.32-1.394-6.08 0-11.027 5.032-11.027 11.218 0 1.208.189 2.397.562 3.534l.11.338-.254.244c-1.28 1.228-2.282 2.678-2.975 4.31C.353 22.614 0 24.357 0 26.155c0 7.198 5.755 13.054 12.83 13.054 1.737 0 3.427-.352 5.024-1.045.424-.184.622-.685.44-1.116-.087-.209-.25-.37-.456-.455-.207-.085-.434-.082-.64.007-1.387.603-2.857.908-4.368.908-6.153 0-11.16-5.093-11.16-11.352 0-3.438 1.51-6.654 4.14-8.822.29-.24.39-.651.24-1-.513-1.201-.774-2.475-.774-3.785 0-5.248 4.198-9.518 9.357-9.518 1.895 0 3.723.577 5.286 1.668.336.235.786.19 1.07-.107 1.784-1.864 4.17-2.89 6.718-2.89 5.173 0 9.381 4.281 9.381 9.543 0 .688-.08 1.4-.24 2.114-.09.41.121.82.504.977 4.846 1.985 7.977 6.701 7.977 12.014 0 7.14-5.71 12.95-12.728 12.95-2.056 0-4.019-.484-5.834-1.44-.196-.103-.428-.123-.637-.055-.213.069-.386.218-.489.42-.211.417-.05.931.359 1.146 2.026 1.066 4.309 1.63 6.6 1.63C40.54 41 47 34.428 47 26.349c0-2.76-.751-5.445-2.172-7.763" transform="translate(-1025 -1915) translate(120 1140) translate(905 775)"/>
                    <g transform="translate(-1025 -1915) translate(120 1140) translate(905 775) translate(13 13)">
                        <mask id="azsdyjne7b" fill="#fff">
                            <use xlink:href="#eq64ag4cua"/>
                        </mask>
                        <path fill="#6D6C6C" d="M16.764 11.885c-.135-.179-.331-.294-.553-.325-.221-.03-.442.027-.62.163l-6.05 4.61v-5.138l6.097-5.632c.34-.315.363-.849.05-1.19-.151-.166-.357-.263-.58-.272-.224-.01-.438.069-.603.221L9.541 8.908V.875c0-.464-.376-.842-.838-.842-.461 0-.837.378-.837.842v3.453L3.734.845C3.563.7 3.347.632 3.124.652c-.223.02-.425.125-.569.297-.297.356-.25.888.103 1.187l5.208 4.39v7.976l-6.512-4.35c-.185-.123-.412-.168-.629-.124-.219.045-.408.172-.532.36-.256.387-.15.91.234 1.168l7.439 4.968v18.634c0 .464.376.842.837.842.462 0 .838-.378.838-.842V18.446l7.061-5.38c.368-.281.44-.81.162-1.18" mask="url(#azsdyjne7b)"/>
                    </g>
                </g>
            </g>
        </g>
    </g>
</svg>
