<svg xmlns="http://www.w3.org/2000/svg" xmlns:xlink="http://www.w3.org/1999/xlink" width="120" height="120" viewBox="0 0 120 120">
    <defs>
        <path id="w7xljd7cza" d="M0 120L120 120 120 0 0 0z"/>
    </defs>
    <g fill="none" fill-rule="evenodd">
        <g>
            <g>
                <g transform="translate(-125 -29) translate(0 4) translate(125 25)">
                    <path fill="#000" d="M42.199 68.289c0-.953-.163-1.876-.49-2.775-.325-.897-.787-1.683-1.384-2.361-.598-.678-1.304-1.227-2.118-1.649-.815-.42-1.693-.631-2.634-.631H20.801v14.776h14.392c.977 0 1.891-.2 2.742-.604.851-.402 1.593-.943 2.227-1.621.633-.677 1.13-1.463 1.493-2.362.362-.897.544-1.82.544-2.773zM20.8 43.35v14.391h13.251c.941 0 1.82-.2 2.634-.604.815-.402 1.511-.934 2.091-1.594.58-.659 1.031-1.418 1.358-2.28.325-.859.489-1.765.489-2.718 0-.988-.155-1.923-.462-2.8-.308-.88-.743-1.64-1.303-2.28-.562-.641-1.223-1.154-1.983-1.539s-1.594-.576-2.498-.576H20.8zM46 68.947c0 1.466-.29 2.811-.87 4.038-.579 1.227-1.357 2.29-2.334 3.185-.978.899-2.118 1.594-3.421 2.088-1.304.495-2.698.742-4.182.742H17V40h18.573c1.339 0 2.552.293 3.639.879 1.086.586 2.009 1.345 2.77 2.279.76.934 1.347 1.996 1.764 3.186.416 1.19.625 2.39.625 3.598 0 1.978-.49 3.781-1.467 5.41-.977 1.63-2.335 2.848-4.073 3.653 2.208.66 3.955 1.887 5.241 3.68C45.356 64.48 46 66.568 46 68.948zM103 75.594L103 79 77 79 77 40 102.509 40 102.509 43.406 80.815 43.406 80.815 57.468 99.73 57.468 99.73 60.708 80.815 60.708 80.815 75.594z"/>
                    <mask id="fbyqykvhfb" fill="#fff">
                        <use xlink:href="#w7xljd7cza"/>
                    </mask>
                    <path fill="#12100B" d="M59 89L61 89 61 30 59 30z" mask="url(#fbyqykvhfb)"/>
                    <path fill="#1D1D1B" d="M2.353 117.647h115.294V2.353H2.353v115.294zM0 120h120V0H0v120z" mask="url(#fbyqykvhfb)"/>
                </g>
            </g>
        </g>
    </g>
</svg>
