<svg xmlns="http://www.w3.org/2000/svg" xmlns:xlink="http://www.w3.org/1999/xlink" width="62" height="62" viewBox="0 0 62 62">
    <defs>
        <path id="g2u2gs3lua" d="M0 62L62 62 62 0 0 0z"/>
    </defs>
    <g fill="none" fill-rule="evenodd">
        <g>
            <g>
                <g transform="translate(-123 -4946) translate(0 4937) translate(123 9)">
                    <path fill="#FFF" d="M22.034 35.507c0-.488-.085-.962-.253-1.422-.169-.46-.407-.864-.716-1.212-.31-.347-.675-.629-1.096-.845-.421-.215-.876-.324-1.362-.324h-7.641v7.578h7.444c.506 0 .978-.103 1.419-.31.44-.207.823-.483 1.151-.832.328-.347.585-.75.773-1.21.187-.46.28-.934.28-1.423zM10.966 22.718v7.38h6.854c.487 0 .941-.102 1.363-.31.42-.206.781-.478 1.081-.817.3-.338.533-.727.702-1.168.168-.441.253-.906.253-1.395 0-.507-.08-.986-.239-1.436-.16-.45-.384-.84-.674-1.17-.29-.328-.632-.59-1.025-.788-.393-.197-.825-.296-1.293-.296h-7.022zM24 35.845c0 .751-.15 1.442-.45 2.07-.3.63-.702 1.174-1.207 1.634-.506.46-1.096.817-1.77 1.07-.674.254-1.395.381-2.163.381H9V21h9.607c.692 0 1.32.15 1.882.45.562.301 1.04.69 1.432 1.17.394.479.698 1.024.913 1.634.216.61.323 1.225.323 1.845 0 1.014-.253 1.939-.758 2.774-.506.836-1.208 1.46-2.107 1.873 1.142.338 2.046.968 2.71 1.888.665.92.998 1.99.998 3.211zM53 39.254L53 41 40 41 40 21 52.754 21 52.754 22.746 41.907 22.746 41.907 29.958 51.365 29.958 51.365 31.62 41.907 31.62 41.907 39.254z"/>
                    <mask id="mplkc980zb" fill="#fff">
                        <use xlink:href="#g2u2gs3lua"/>
                    </mask>
                    <path fill="#FFF" d="M30 46L31 46 31 15 30 15z" mask="url(#mplkc980zb)"/>
                    <path fill="#FFF" d="M1.216 60.784h59.568V1.216H1.216v59.568zM0 62h62V0H0v62z" mask="url(#mplkc980zb)"/>
                </g>
            </g>
        </g>
    </g>
</svg>
